<?xml version="1.0" encoding="UTF-8" standalone="yes"?>
<svg xmlns="http://www.w3.org/2000/svg" xmlns:xlink="http://www.w3.org/1999/xlink" width="100%" height="100%" viewBox="0 0 321.0 171.0">
 <g id="SFixTitle" />
 <g id="SContent">
  <g transform="scale(1.33333)">
   <g transform="matrix(1,0,0,1,0,0)">
    <g>
     <path d="M0,0 L239.875,0 L239.875,127.375 L0,127.375 Z " stroke="none" stroke-width="0" fill="#FFFFFF" fill-opacity="1" transform="matrix(1,0,0,1,0,0)" />
     <path d="M3.75,9 L177,9 L177,120.75 L3.75,120.75 Z " stroke="none" stroke-width="0" fill="#C0C0C0" fill-opacity="1" transform="matrix(1,0,0,1,0,0)" />
     <path d="M3.75,9 L177,9 L177,120.75 L3.75,120.75 Z " stroke="#808080" stroke-opacity="1" stroke-width="1" stroke-linecap="butt" stroke-linejoin="round" fill="none" transform="matrix(1,0,0,1,0,0)" />
     <path d="M36.062484741,99 L160.78125,99 L170.937515259,91.31438446 L46.218753815,91.31438446 Z " stroke="none" stroke-width="0" fill="#868686" fill-opacity="1" transform="matrix(1,0,0,1,0,0)" />
     <path d="M36.062484741,99 L46.218753815,91.31438446 L46.218753815,9 L36.062484741,16.685617447 Z " stroke="none" stroke-width="0" fill="#868686" fill-opacity="1" transform="matrix(1,0,0,1,0,0)" />
     <path d="M170.937515259,91.31438446 L46.218753815,91.31438446 L46.218753815,9 L170.937515259,9 Z " stroke="none" stroke-width="0" fill="#C0C0C0" fill-opacity="1" transform="matrix(1,0,0,1,0,0)" />
     <path d="M36.062484741,99 L46.218753815,91.31438446 " stroke="#000000" stroke-opacity="1" stroke-width="0.25" stroke-linecap="butt" stroke-linejoin="round" fill="none" transform="matrix(1,0,0,1,0,0)" />
     <path d="M46.218753815,91.31438446 L170.937515259,91.31438446 " stroke="#000000" stroke-opacity="1" stroke-width="0.25" stroke-linecap="butt" stroke-linejoin="round" fill="none" transform="matrix(1,0,0,1,0,0)" />
     <path d="M36.062484741,71.56187439 L46.218753815,63.876251221 " stroke="#000000" stroke-opacity="1" stroke-width="0.25" stroke-linecap="butt" stroke-linejoin="round" fill="none" transform="matrix(1,0,0,1,0,0)" />
     <path d="M46.218753815,63.876251221 L170.937515259,63.876251221 " stroke="#000000" stroke-opacity="1" stroke-width="0.25" stroke-linecap="butt" stroke-linejoin="round" fill="none" transform="matrix(1,0,0,1,0,0)" />
     <path d="M36.062484741,44.12374115 L46.218753815,36.43812561 " stroke="#000000" stroke-opacity="1" stroke-width="0.25" stroke-linecap="butt" stroke-linejoin="round" fill="none" transform="matrix(1,0,0,1,0,0)" />
     <path d="M46.218753815,36.43812561 L170.937515259,36.43812561 " stroke="#000000" stroke-opacity="1" stroke-width="0.25" stroke-linecap="butt" stroke-linejoin="round" fill="none" transform="matrix(1,0,0,1,0,0)" />
     <path d="M36.062484741,16.685617447 L46.218753815,9 " stroke="#000000" stroke-opacity="1" stroke-width="0.25" stroke-linecap="butt" stroke-linejoin="round" fill="none" transform="matrix(1,0,0,1,0,0)" />
     <path d="M46.218753815,9 L170.937515259,9 " stroke="#000000" stroke-opacity="1" stroke-width="0.25" stroke-linecap="butt" stroke-linejoin="round" fill="none" transform="matrix(1,0,0,1,0,0)" />
     <path d="M36.062484741,99 L160.78125,99 L170.937515259,91.31438446 L46.218753815,91.31438446 L36.062484741,99 " stroke="#000000" stroke-opacity="1" stroke-width="0.25" stroke-linecap="butt" stroke-linejoin="round" fill="none" transform="matrix(1,0,0,1,0,0)" />
     <path d="M170.937515259,91.31438446 L46.218753815,91.31438446 L46.218753815,9 L170.937515259,9 Z " stroke="#000000" stroke-opacity="1" stroke-width="0.25" stroke-linecap="butt" stroke-linejoin="round" fill="none" transform="matrix(1,0,0,1,0,0)" />
     <path d="M36.062484741,99 L46.218753815,91.31438446 L46.218753815,9 L36.062484741,16.685617447 Z " stroke="#000000" stroke-opacity="1" stroke-width="0.25" stroke-linecap="butt" stroke-linejoin="round" fill="none" transform="matrix(1,0,0,1,0,0)" />
     <path d="M48.017845154,96.694313049 L59.895824432,96.694313049 " stroke="#000000" stroke-opacity="1" stroke-width="1" stroke-linecap="butt" stroke-linejoin="round" fill="none" transform="matrix(1,0,0,1,0,0)" />
     <path d="M59.895824432,96.694313049 L63.958335876,93.620063782 " stroke="#000000" stroke-opacity="1" stroke-width="1" stroke-linecap="butt" stroke-linejoin="round" fill="none" transform="matrix(1,0,0,1,0,0)" />
     <path d="M63.958335876,93.620063782 L52.080356598,93.620063782 " stroke="#000000" stroke-opacity="1" stroke-width="1" stroke-linecap="butt" stroke-linejoin="round" fill="none" transform="matrix(1,0,0,1,0,0)" />
     <path d="M48.017845154,96.694313049 L52.080356598,93.620063782 " stroke="#000000" stroke-opacity="1" stroke-width="1" stroke-linecap="butt" stroke-linejoin="round" fill="none" transform="matrix(1,0,0,1,0,0)" />
     <path d="M55.988090515,67.719062805 " stroke="#000000" stroke-opacity="1" stroke-width="1" stroke-linecap="butt" stroke-linejoin="round" fill="none" transform="matrix(1,0,0,1,0,0)" />
     <path d="M55.988090515,67.719062805 " stroke="#000000" stroke-opacity="1" stroke-width="1" stroke-linecap="butt" stroke-linejoin="round" fill="none" transform="matrix(1,0,0,1,0,0)" />
     <path d="M55.988090515,67.719062805 " stroke="#000000" stroke-opacity="1" stroke-width="1" stroke-linecap="butt" stroke-linejoin="round" fill="none" transform="matrix(1,0,0,1,0,0)" />
     <path d="M55.988090515,67.719062805 " stroke="#000000" stroke-opacity="1" stroke-width="1" stroke-linecap="butt" stroke-linejoin="round" fill="none" transform="matrix(1,0,0,1,0,0)" />
     <path d="M48.017845154,96.694313049 L55.988090515,67.719062805 " stroke="#000000" stroke-opacity="1" stroke-width="1" stroke-linecap="butt" stroke-linejoin="round" fill="none" transform="matrix(1,0,0,1,0,0)" />
     <path d="M59.895824432,96.694313049 L55.988090515,67.719062805 " stroke="#000000" stroke-opacity="1" stroke-width="1" stroke-linecap="butt" stroke-linejoin="round" fill="none" transform="matrix(1,0,0,1,0,0)" />
     <path d="M63.958335876,93.620063782 L55.988090515,67.719062805 " stroke="#000000" stroke-opacity="1" stroke-width="1" stroke-linecap="butt" stroke-linejoin="round" fill="none" transform="matrix(1,0,0,1,0,0)" />
     <path d="M52.080356598,93.620063782 L55.988090515,67.719062805 " stroke="#000000" stroke-opacity="1" stroke-width="1" stroke-linecap="butt" stroke-linejoin="round" fill="none" transform="matrix(1,0,0,1,0,0)" />
     <path d="M48.017845154,96.694313049 L59.895824432,96.694313049 L55.988090515,67.719062805 Z " stroke="none" stroke-width="0" fill="#9999FF" fill-opacity="1" transform="matrix(1,0,0,1,0,0)" />
     <path d="M59.895824432,96.694313049 L63.958335876,93.620063782 L55.988090515,67.719062805 Z " stroke="none" stroke-width="0" fill="#4C4C7F" fill-opacity="1" transform="matrix(1,0,0,1,0,0)" />
     <path d="M48.017845154,96.694313049 L59.895824432,96.694313049 L55.988090515,67.719062805 Z " stroke="#000000" stroke-opacity="1" stroke-width="1" stroke-linecap="butt" stroke-linejoin="round" fill="none" transform="matrix(1,0,0,1,0,0)" />
     <path d="M59.895824432,96.694313049 L63.958335876,93.620063782 L55.988090515,67.719062805 Z " stroke="#000000" stroke-opacity="1" stroke-width="1" stroke-linecap="butt" stroke-linejoin="round" fill="none" transform="matrix(1,0,0,1,0,0)" />
     <path d="M55.988090515,67.719062805 Z " stroke="none" stroke-width="0" fill="#6666AA" fill-opacity="1" transform="matrix(1,0,0,1,0,0)" />
     <path d="M55.988090515,67.719062805 Z " stroke="#000000" stroke-opacity="1" stroke-width="1" stroke-linecap="butt" stroke-linejoin="round" fill="none" transform="matrix(1,0,0,1,0,0)" />
     <path d="M59.895824432,96.694313049 L71.773796082,96.694313049 " stroke="#000000" stroke-opacity="1" stroke-width="1" stroke-linecap="butt" stroke-linejoin="round" fill="none" transform="matrix(1,0,0,1,0,0)" />
     <path d="M71.773796082,96.694313049 L75.836303711,93.620063782 " stroke="#000000" stroke-opacity="1" stroke-width="1" stroke-linecap="butt" stroke-linejoin="round" fill="none" transform="matrix(1,0,0,1,0,0)" />
     <path d="M75.836303711,93.620063782 L63.958335876,93.620063782 " stroke="#000000" stroke-opacity="1" stroke-width="1" stroke-linecap="butt" stroke-linejoin="round" fill="none" transform="matrix(1,0,0,1,0,0)" />
     <path d="M59.895824432,96.694313049 L63.958335876,93.620063782 " stroke="#000000" stroke-opacity="1" stroke-width="1" stroke-linecap="butt" stroke-linejoin="round" fill="none" transform="matrix(1,0,0,1,0,0)" />
     <path d="M67.86605835,92.962135315 " stroke="#000000" stroke-opacity="1" stroke-width="1" stroke-linecap="butt" stroke-linejoin="round" fill="none" transform="matrix(1,0,0,1,0,0)" />
     <path d="M67.86605835,92.962135315 " stroke="#000000" stroke-opacity="1" stroke-width="1" stroke-linecap="butt" stroke-linejoin="round" fill="none" transform="matrix(1,0,0,1,0,0)" />
     <path d="M67.86605835,92.962135315 " stroke="#000000" stroke-opacity="1" stroke-width="1" stroke-linecap="butt" stroke-linejoin="round" fill="none" transform="matrix(1,0,0,1,0,0)" />
     <path d="M67.86605835,92.962135315 " stroke="#000000" stroke-opacity="1" stroke-width="1" stroke-linecap="butt" stroke-linejoin="round" fill="none" transform="matrix(1,0,0,1,0,0)" />
     <path d="M59.895824432,96.694313049 L67.86605835,92.962135315 " stroke="#000000" stroke-opacity="1" stroke-width="1" stroke-linecap="butt" stroke-linejoin="round" fill="none" transform="matrix(1,0,0,1,0,0)" />
     <path d="M71.773796082,96.694313049 L67.86605835,92.962135315 " stroke="#000000" stroke-opacity="1" stroke-width="1" stroke-linecap="butt" stroke-linejoin="round" fill="none" transform="matrix(1,0,0,1,0,0)" />
     <path d="M75.836303711,93.620063782 L67.86605835,92.962135315 " stroke="#000000" stroke-opacity="1" stroke-width="1" stroke-linecap="butt" stroke-linejoin="round" fill="none" transform="matrix(1,0,0,1,0,0)" />
     <path d="M63.958335876,93.620063782 L67.86605835,92.962135315 " stroke="#000000" stroke-opacity="1" stroke-width="1" stroke-linecap="butt" stroke-linejoin="round" fill="none" transform="matrix(1,0,0,1,0,0)" />
     <path d="M59.895824432,96.694313049 L71.773796082,96.694313049 L67.86605835,92.962135315 Z " stroke="none" stroke-width="0" fill="#993366" fill-opacity="1" transform="matrix(1,0,0,1,0,0)" />
     <path d="M71.773796082,96.694313049 L75.836303711,93.620063782 L67.86605835,92.962135315 Z " stroke="none" stroke-width="0" fill="#4C1933" fill-opacity="1" transform="matrix(1,0,0,1,0,0)" />
     <path d="M59.895824432,96.694313049 L71.773796082,96.694313049 L67.86605835,92.962135315 Z " stroke="#000000" stroke-opacity="1" stroke-width="1" stroke-linecap="butt" stroke-linejoin="round" fill="none" transform="matrix(1,0,0,1,0,0)" />
     <path d="M71.773796082,96.694313049 L75.836303711,93.620063782 L67.86605835,92.962135315 Z " stroke="#000000" stroke-opacity="1" stroke-width="1" stroke-linecap="butt" stroke-linejoin="round" fill="none" transform="matrix(1,0,0,1,0,0)" />
     <path d="M67.86605835,92.962135315 Z " stroke="none" stroke-width="0" fill="#662244" fill-opacity="1" transform="matrix(1,0,0,1,0,0)" />
     <path d="M67.86605835,92.962135315 Z " stroke="#000000" stroke-opacity="1" stroke-width="1" stroke-linecap="butt" stroke-linejoin="round" fill="none" transform="matrix(1,0,0,1,0,0)" />
     <path d="M89.590774536,96.694313049 L101.468742371,96.694313049 " stroke="#000000" stroke-opacity="1" stroke-width="1" stroke-linecap="butt" stroke-linejoin="round" fill="none" transform="matrix(1,0,0,1,0,0)" />
     <path d="M101.468742371,96.694313049 L105.53125,93.620063782 " stroke="#000000" stroke-opacity="1" stroke-width="1" stroke-linecap="butt" stroke-linejoin="round" fill="none" transform="matrix(1,0,0,1,0,0)" />
     <path d="M105.53125,93.620063782 L93.653282166,93.620063782 " stroke="#000000" stroke-opacity="1" stroke-width="1" stroke-linecap="butt" stroke-linejoin="round" fill="none" transform="matrix(1,0,0,1,0,0)" />
     <path d="M89.590774536,96.694313049 L93.653282166,93.620063782 " stroke="#000000" stroke-opacity="1" stroke-width="1" stroke-linecap="butt" stroke-linejoin="round" fill="none" transform="matrix(1,0,0,1,0,0)" />
     <path d="M97.561004639,40.280929565 " stroke="#000000" stroke-opacity="1" stroke-width="1" stroke-linecap="butt" stroke-linejoin="round" fill="none" transform="matrix(1,0,0,1,0,0)" />
     <path d="M97.561004639,40.280929565 " stroke="#000000" stroke-opacity="1" stroke-width="1" stroke-linecap="butt" stroke-linejoin="round" fill="none" transform="matrix(1,0,0,1,0,0)" />
     <path d="M97.561004639,40.280929565 " stroke="#000000" stroke-opacity="1" stroke-width="1" stroke-linecap="butt" stroke-linejoin="round" fill="none" transform="matrix(1,0,0,1,0,0)" />
     <path d="M97.561004639,40.280929565 " stroke="#000000" stroke-opacity="1" stroke-width="1" stroke-linecap="butt" stroke-linejoin="round" fill="none" transform="matrix(1,0,0,1,0,0)" />
     <path d="M89.590774536,96.694313049 L97.561004639,40.280929565 " stroke="#000000" stroke-opacity="1" stroke-width="1" stroke-linecap="butt" stroke-linejoin="round" fill="none" transform="matrix(1,0,0,1,0,0)" />
     <path d="M101.468742371,96.694313049 L97.561004639,40.280929565 " stroke="#000000" stroke-opacity="1" stroke-width="1" stroke-linecap="butt" stroke-linejoin="round" fill="none" transform="matrix(1,0,0,1,0,0)" />
     <path d="M105.53125,93.620063782 L97.561004639,40.280929565 " stroke="#000000" stroke-opacity="1" stroke-width="1" stroke-linecap="butt" stroke-linejoin="round" fill="none" transform="matrix(1,0,0,1,0,0)" />
     <path d="M93.653282166,93.620063782 L97.561004639,40.280929565 " stroke="#000000" stroke-opacity="1" stroke-width="1" stroke-linecap="butt" stroke-linejoin="round" fill="none" transform="matrix(1,0,0,1,0,0)" />
     <path d="M89.590774536,96.694313049 L101.468742371,96.694313049 L97.561004639,40.280929565 Z " stroke="none" stroke-width="0" fill="#9999FF" fill-opacity="1" transform="matrix(1,0,0,1,0,0)" />
     <path d="M101.468742371,96.694313049 L105.53125,93.620063782 L97.561004639,40.280929565 Z " stroke="none" stroke-width="0" fill="#4C4C7F" fill-opacity="1" transform="matrix(1,0,0,1,0,0)" />
     <path d="M89.590774536,96.694313049 L101.468742371,96.694313049 L97.561004639,40.280929565 Z " stroke="#000000" stroke-opacity="1" stroke-width="1" stroke-linecap="butt" stroke-linejoin="round" fill="none" transform="matrix(1,0,0,1,0,0)" />
     <path d="M101.468742371,96.694313049 L105.53125,93.620063782 L97.561004639,40.280929565 Z " stroke="#000000" stroke-opacity="1" stroke-width="1" stroke-linecap="butt" stroke-linejoin="round" fill="none" transform="matrix(1,0,0,1,0,0)" />
     <path d="M97.561004639,40.280929565 Z " stroke="none" stroke-width="0" fill="#6666AA" fill-opacity="1" transform="matrix(1,0,0,1,0,0)" />
     <path d="M97.561004639,40.280929565 Z " stroke="#000000" stroke-opacity="1" stroke-width="1" stroke-linecap="butt" stroke-linejoin="round" fill="none" transform="matrix(1,0,0,1,0,0)" />
     <path d="M101.468742371,96.694313049 L113.346725464,96.694313049 " stroke="#000000" stroke-opacity="1" stroke-width="1" stroke-linecap="butt" stroke-linejoin="round" fill="none" transform="matrix(1,0,0,1,0,0)" />
     <path d="M113.346725464,96.694313049 L117.409225464,93.620063782 " stroke="#000000" stroke-opacity="1" stroke-width="1" stroke-linecap="butt" stroke-linejoin="round" fill="none" transform="matrix(1,0,0,1,0,0)" />
     <path d="M117.409225464,93.620063782 L105.53125,93.620063782 " stroke="#000000" stroke-opacity="1" stroke-width="1" stroke-linecap="butt" stroke-linejoin="round" fill="none" transform="matrix(1,0,0,1,0,0)" />
     <path d="M101.468742371,96.694313049 L105.53125,93.620063782 " stroke="#000000" stroke-opacity="1" stroke-width="1" stroke-linecap="butt" stroke-linejoin="round" fill="none" transform="matrix(1,0,0,1,0,0)" />
     <path d="M109.438995361,84.181938171 " stroke="#000000" stroke-opacity="1" stroke-width="1" stroke-linecap="butt" stroke-linejoin="round" fill="none" transform="matrix(1,0,0,1,0,0)" />
     <path d="M109.438995361,84.181938171 " stroke="#000000" stroke-opacity="1" stroke-width="1" stroke-linecap="butt" stroke-linejoin="round" fill="none" transform="matrix(1,0,0,1,0,0)" />
     <path d="M109.438995361,84.181938171 " stroke="#000000" stroke-opacity="1" stroke-width="1" stroke-linecap="butt" stroke-linejoin="round" fill="none" transform="matrix(1,0,0,1,0,0)" />
     <path d="M109.438995361,84.181938171 " stroke="#000000" stroke-opacity="1" stroke-width="1" stroke-linecap="butt" stroke-linejoin="round" fill="none" transform="matrix(1,0,0,1,0,0)" />
     <path d="M101.468742371,96.694313049 L109.438995361,84.181938171 " stroke="#000000" stroke-opacity="1" stroke-width="1" stroke-linecap="butt" stroke-linejoin="round" fill="none" transform="matrix(1,0,0,1,0,0)" />
     <path d="M113.346725464,96.694313049 L109.438995361,84.181938171 " stroke="#000000" stroke-opacity="1" stroke-width="1" stroke-linecap="butt" stroke-linejoin="round" fill="none" transform="matrix(1,0,0,1,0,0)" />
     <path d="M117.409225464,93.620063782 L109.438995361,84.181938171 " stroke="#000000" stroke-opacity="1" stroke-width="1" stroke-linecap="butt" stroke-linejoin="round" fill="none" transform="matrix(1,0,0,1,0,0)" />
     <path d="M105.53125,93.620063782 L109.438995361,84.181938171 " stroke="#000000" stroke-opacity="1" stroke-width="1" stroke-linecap="butt" stroke-linejoin="round" fill="none" transform="matrix(1,0,0,1,0,0)" />
     <path d="M101.468742371,96.694313049 L113.346725464,96.694313049 L109.438995361,84.181938171 Z " stroke="none" stroke-width="0" fill="#993366" fill-opacity="1" transform="matrix(1,0,0,1,0,0)" />
     <path d="M113.346725464,96.694313049 L117.409225464,93.620063782 L109.438995361,84.181938171 Z " stroke="none" stroke-width="0" fill="#4C1933" fill-opacity="1" transform="matrix(1,0,0,1,0,0)" />
     <path d="M101.468742371,96.694313049 L113.346725464,96.694313049 L109.438995361,84.181938171 Z " stroke="#000000" stroke-opacity="1" stroke-width="1" stroke-linecap="butt" stroke-linejoin="round" fill="none" transform="matrix(1,0,0,1,0,0)" />
     <path d="M113.346725464,96.694313049 L117.409225464,93.620063782 L109.438995361,84.181938171 Z " stroke="#000000" stroke-opacity="1" stroke-width="1" stroke-linecap="butt" stroke-linejoin="round" fill="none" transform="matrix(1,0,0,1,0,0)" />
     <path d="M109.438995361,84.181938171 Z " stroke="none" stroke-width="0" fill="#662244" fill-opacity="1" transform="matrix(1,0,0,1,0,0)" />
     <path d="M109.438995361,84.181938171 Z " stroke="#000000" stroke-opacity="1" stroke-width="1" stroke-linecap="butt" stroke-linejoin="round" fill="none" transform="matrix(1,0,0,1,0,0)" />
     <path d="M131.163696289,96.694313049 L143.041671753,96.694313049 " stroke="#000000" stroke-opacity="1" stroke-width="1" stroke-linecap="butt" stroke-linejoin="round" fill="none" transform="matrix(1,0,0,1,0,0)" />
     <path d="M143.041671753,96.694313049 L147.104171753,93.620063782 " stroke="#000000" stroke-opacity="1" stroke-width="1" stroke-linecap="butt" stroke-linejoin="round" fill="none" transform="matrix(1,0,0,1,0,0)" />
     <path d="M147.104171753,93.620063782 L135.226196289,93.620063782 " stroke="#000000" stroke-opacity="1" stroke-width="1" stroke-linecap="butt" stroke-linejoin="round" fill="none" transform="matrix(1,0,0,1,0,0)" />
     <path d="M131.163696289,96.694313049 L135.226196289,93.620063782 " stroke="#000000" stroke-opacity="1" stroke-width="1" stroke-linecap="butt" stroke-linejoin="round" fill="none" transform="matrix(1,0,0,1,0,0)" />
     <path d="M139.13394165,12.842805862 " stroke="#000000" stroke-opacity="1" stroke-width="1" stroke-linecap="butt" stroke-linejoin="round" fill="none" transform="matrix(1,0,0,1,0,0)" />
     <path d="M139.13394165,12.842805862 " stroke="#000000" stroke-opacity="1" stroke-width="1" stroke-linecap="butt" stroke-linejoin="round" fill="none" transform="matrix(1,0,0,1,0,0)" />
     <path d="M139.13394165,12.842805862 " stroke="#000000" stroke-opacity="1" stroke-width="1" stroke-linecap="butt" stroke-linejoin="round" fill="none" transform="matrix(1,0,0,1,0,0)" />
     <path d="M139.13394165,12.842805862 " stroke="#000000" stroke-opacity="1" stroke-width="1" stroke-linecap="butt" stroke-linejoin="round" fill="none" transform="matrix(1,0,0,1,0,0)" />
     <path d="M131.163696289,96.694313049 L139.13394165,12.842805862 " stroke="#000000" stroke-opacity="1" stroke-width="1" stroke-linecap="butt" stroke-linejoin="round" fill="none" transform="matrix(1,0,0,1,0,0)" />
     <path d="M143.041671753,96.694313049 L139.13394165,12.842805862 " stroke="#000000" stroke-opacity="1" stroke-width="1" stroke-linecap="butt" stroke-linejoin="round" fill="none" transform="matrix(1,0,0,1,0,0)" />
     <path d="M147.104171753,93.620063782 L139.13394165,12.842805862 " stroke="#000000" stroke-opacity="1" stroke-width="1" stroke-linecap="butt" stroke-linejoin="round" fill="none" transform="matrix(1,0,0,1,0,0)" />
     <path d="M135.226196289,93.620063782 L139.13394165,12.842805862 " stroke="#000000" stroke-opacity="1" stroke-width="1" stroke-linecap="butt" stroke-linejoin="round" fill="none" transform="matrix(1,0,0,1,0,0)" />
     <path d="M131.163696289,96.694313049 L143.041671753,96.694313049 L139.13394165,12.842805862 Z " stroke="none" stroke-width="0" fill="#9999FF" fill-opacity="1" transform="matrix(1,0,0,1,0,0)" />
     <path d="M143.041671753,96.694313049 L147.104171753,93.620063782 L139.13394165,12.842805862 Z " stroke="none" stroke-width="0" fill="#4C4C7F" fill-opacity="1" transform="matrix(1,0,0,1,0,0)" />
     <path d="M131.163696289,96.694313049 L143.041671753,96.694313049 L139.13394165,12.842805862 Z " stroke="#000000" stroke-opacity="1" stroke-width="1" stroke-linecap="butt" stroke-linejoin="round" fill="none" transform="matrix(1,0,0,1,0,0)" />
     <path d="M143.041671753,96.694313049 L147.104171753,93.620063782 L139.13394165,12.842805862 Z " stroke="#000000" stroke-opacity="1" stroke-width="1" stroke-linecap="butt" stroke-linejoin="round" fill="none" transform="matrix(1,0,0,1,0,0)" />
     <path d="M139.13394165,12.842805862 Z " stroke="none" stroke-width="0" fill="#6666AA" fill-opacity="1" transform="matrix(1,0,0,1,0,0)" />
     <path d="M139.13394165,12.842805862 Z " stroke="#000000" stroke-opacity="1" stroke-width="1" stroke-linecap="butt" stroke-linejoin="round" fill="none" transform="matrix(1,0,0,1,0,0)" />
     <path d="M143.041656494,96.694313049 L154.919631958,96.694313049 " stroke="#000000" stroke-opacity="1" stroke-width="1" stroke-linecap="butt" stroke-linejoin="round" fill="none" transform="matrix(1,0,0,1,0,0)" />
     <path d="M154.919631958,96.694313049 L158.982131958,93.620063782 " stroke="#000000" stroke-opacity="1" stroke-width="1" stroke-linecap="butt" stroke-linejoin="round" fill="none" transform="matrix(1,0,0,1,0,0)" />
     <path d="M158.982131958,93.620063782 L147.104156494,93.620063782 " stroke="#000000" stroke-opacity="1" stroke-width="1" stroke-linecap="butt" stroke-linejoin="round" fill="none" transform="matrix(1,0,0,1,0,0)" />
     <path d="M143.041656494,96.694313049 L147.104156494,93.620063782 " stroke="#000000" stroke-opacity="1" stroke-width="1" stroke-linecap="butt" stroke-linejoin="round" fill="none" transform="matrix(1,0,0,1,0,0)" />
     <path d="M151.011901855,67.719062805 " stroke="#000000" stroke-opacity="1" stroke-width="1" stroke-linecap="butt" stroke-linejoin="round" fill="none" transform="matrix(1,0,0,1,0,0)" />
     <path d="M151.011901855,67.719062805 " stroke="#000000" stroke-opacity="1" stroke-width="1" stroke-linecap="butt" stroke-linejoin="round" fill="none" transform="matrix(1,0,0,1,0,0)" />
     <path d="M151.011901855,67.719062805 " stroke="#000000" stroke-opacity="1" stroke-width="1" stroke-linecap="butt" stroke-linejoin="round" fill="none" transform="matrix(1,0,0,1,0,0)" />
     <path d="M151.011901855,67.719062805 " stroke="#000000" stroke-opacity="1" stroke-width="1" stroke-linecap="butt" stroke-linejoin="round" fill="none" transform="matrix(1,0,0,1,0,0)" />
     <path d="M143.041656494,96.694313049 L151.011901855,67.719062805 " stroke="#000000" stroke-opacity="1" stroke-width="1" stroke-linecap="butt" stroke-linejoin="round" fill="none" transform="matrix(1,0,0,1,0,0)" />
     <path d="M154.919631958,96.694313049 L151.011901855,67.719062805 " stroke="#000000" stroke-opacity="1" stroke-width="1" stroke-linecap="butt" stroke-linejoin="round" fill="none" transform="matrix(1,0,0,1,0,0)" />
     <path d="M158.982131958,93.620063782 L151.011901855,67.719062805 " stroke="#000000" stroke-opacity="1" stroke-width="1" stroke-linecap="butt" stroke-linejoin="round" fill="none" transform="matrix(1,0,0,1,0,0)" />
     <path d="M147.104156494,93.620063782 L151.011901855,67.719062805 " stroke="#000000" stroke-opacity="1" stroke-width="1" stroke-linecap="butt" stroke-linejoin="round" fill="none" transform="matrix(1,0,0,1,0,0)" />
     <path d="M143.041656494,96.694313049 L154.919631958,96.694313049 L151.011901855,67.719062805 Z " stroke="none" stroke-width="0" fill="#993366" fill-opacity="1" transform="matrix(1,0,0,1,0,0)" />
     <path d="M154.919631958,96.694313049 L158.982131958,93.620063782 L151.011901855,67.719062805 Z " stroke="none" stroke-width="0" fill="#4C1933" fill-opacity="1" transform="matrix(1,0,0,1,0,0)" />
     <path d="M143.041656494,96.694313049 L154.919631958,96.694313049 L151.011901855,67.719062805 Z " stroke="#000000" stroke-opacity="1" stroke-width="1" stroke-linecap="butt" stroke-linejoin="round" fill="none" transform="matrix(1,0,0,1,0,0)" />
     <path d="M154.919631958,96.694313049 L158.982131958,93.620063782 L151.011901855,67.719062805 Z " stroke="#000000" stroke-opacity="1" stroke-width="1" stroke-linecap="butt" stroke-linejoin="round" fill="none" transform="matrix(1,0,0,1,0,0)" />
     <path d="M151.011901855,67.719062805 Z " stroke="none" stroke-width="0" fill="#662244" fill-opacity="1" transform="matrix(1,0,0,1,0,0)" />
     <path d="M151.011901855,67.719062805 Z " stroke="#000000" stroke-opacity="1" stroke-width="1" stroke-linecap="butt" stroke-linejoin="round" fill="none" transform="matrix(1,0,0,1,0,0)" />
     <path d="M36.062484741,99 L36.062484741,16.685617447 " stroke="#000000" stroke-opacity="1" stroke-width="0.25" stroke-linecap="butt" stroke-linejoin="round" fill="none" transform="matrix(1,0,0,1,0,0)" />
     <text x="15" y="19.5" font-family="Arial" font-size="10" fill="#000000" transform="matrix(1,0,0,1,0,0)">150</text>
     <path d="M36.062484741,16.685617447 L39.062484741,16.685617447 " stroke="#000000" stroke-opacity="1" stroke-width="0.25" stroke-linecap="butt" stroke-linejoin="round" fill="none" transform="matrix(1,0,0,1,0,0)" />
     <path d="M33.062484741,16.685617447 L36.062484741,16.685617447 " stroke="#000000" stroke-opacity="1" stroke-width="0.25" stroke-linecap="butt" stroke-linejoin="round" fill="none" transform="matrix(1,0,0,1,0,0)" />
     <text x="15" y="47.25" font-family="Arial" font-size="10" fill="#000000" transform="matrix(1,0,0,1,0,0)">100</text>
     <path d="M36.062484741,44.12374115 L39.062484741,44.12374115 " stroke="#000000" stroke-opacity="1" stroke-width="0.25" stroke-linecap="butt" stroke-linejoin="round" fill="none" transform="matrix(1,0,0,1,0,0)" />
     <path d="M33.062484741,44.12374115 L36.062484741,44.12374115 " stroke="#000000" stroke-opacity="1" stroke-width="0.25" stroke-linecap="butt" stroke-linejoin="round" fill="none" transform="matrix(1,0,0,1,0,0)" />
     <text x="20.25" y="74.25" font-family="Arial" font-size="10" fill="#000000" transform="matrix(1,0,0,1,0,0)">50</text>
     <path d="M36.062484741,71.56187439 L39.062484741,71.56187439 " stroke="#000000" stroke-opacity="1" stroke-width="0.25" stroke-linecap="butt" stroke-linejoin="round" fill="none" transform="matrix(1,0,0,1,0,0)" />
     <path d="M33.062484741,71.56187439 L36.062484741,71.56187439 " stroke="#000000" stroke-opacity="1" stroke-width="0.25" stroke-linecap="butt" stroke-linejoin="round" fill="none" transform="matrix(1,0,0,1,0,0)" />
     <text x="25.5" y="102" font-family="Arial" font-size="10" fill="#000000" transform="matrix(1,0,0,1,0,0)">0</text>
     <path d="M36.062484741,99 L39.062484741,99 " stroke="#000000" stroke-opacity="1" stroke-width="0.25" stroke-linecap="butt" stroke-linejoin="round" fill="none" transform="matrix(1,0,0,1,0,0)" />
     <path d="M33.062484741,99 L36.062484741,99 " stroke="#000000" stroke-opacity="1" stroke-width="0.25" stroke-linecap="butt" stroke-linejoin="round" fill="none" transform="matrix(1,0,0,1,0,0)" />
     <path d="M36.062484741,99 L160.78125,99 " stroke="#000000" stroke-opacity="1" stroke-width="0.25" stroke-linecap="butt" stroke-linejoin="round" fill="none" transform="matrix(1,0,0,1,0,0)" />
     <text x="54" y="117" font-family="Arial" font-size="10" fill="#000000" transform="matrix(1,0,0,1,0,0)">1</text>
     <text x="96" y="117" font-family="Arial" font-size="10" fill="#000000" transform="matrix(1,0,0,1,0,0)">2</text>
     <text x="137.25" y="117" font-family="Arial" font-size="10" fill="#000000" transform="matrix(1,0,0,1,0,0)">3</text>
     <path d="M36.062484741,96 L36.062484741,99 " stroke="#000000" stroke-opacity="1" stroke-width="0.25" stroke-linecap="butt" stroke-linejoin="round" fill="none" transform="matrix(1,0,0,1,0,0)" />
     <path d="M77.635406494,96 L77.635406494,99 " stroke="#000000" stroke-opacity="1" stroke-width="0.25" stroke-linecap="butt" stroke-linejoin="round" fill="none" transform="matrix(1,0,0,1,0,0)" />
     <path d="M119.208320618,96 L119.208320618,99 " stroke="#000000" stroke-opacity="1" stroke-width="0.25" stroke-linecap="butt" stroke-linejoin="round" fill="none" transform="matrix(1,0,0,1,0,0)" />
     <path d="M160.781234741,96 L160.781234741,99 " stroke="#000000" stroke-opacity="1" stroke-width="0.25" stroke-linecap="butt" stroke-linejoin="round" fill="none" transform="matrix(1,0,0,1,0,0)" />
     <path d="M186,48 L234,48 L234,80.25 L186,80.25 Z " stroke="none" stroke-width="0" fill="#FFFFFF" fill-opacity="1" transform="matrix(1,0,0,1,0,0)" />
     <path d="M186,48 L234,48 L234,80.25 L186,80.25 Z " stroke="#000000" stroke-opacity="1" stroke-width="0.25" stroke-linecap="butt" stroke-linejoin="round" fill="none" transform="matrix(1,0,0,1,0,0)" />
     <g>
      <defs>
       <clipPath id="CLIP0">
        <path d="M186,48 L186,80.25 L234,80.25 L234,48 Z " />
       </clipPath>
      </defs>
      <g clip-path="url(#CLIP0)">
       <path d="M190.5,53.25 L195.75,53.25 L195.75,58.5 L190.5,58.5 Z " stroke="none" stroke-width="0" fill="#9999FF" fill-opacity="1" transform="matrix(1,0,0,1,0,0)" />
       <path d="M190.5,53.25 L195.75,53.25 L195.75,58.5 L190.5,58.5 Z " stroke="#000000" stroke-opacity="1" stroke-width="1" stroke-linecap="butt" stroke-linejoin="round" fill="none" transform="matrix(1,0,0,1,0,0)" />
       <text x="197.625" y="58.3125" font-family="Arial" font-size="9.14999962" fill="#000000" transform="matrix(1,0,0,1,0,0)">Series1</text>
       <path d="M190.5,69 L195.75,69 L195.75,74.25 L190.5,74.25 Z " stroke="none" stroke-width="0" fill="#993366" fill-opacity="1" transform="matrix(1,0,0,1,0,0)" />
       <path d="M190.5,69 L195.75,69 L195.75,74.25 L190.5,74.25 Z " stroke="#000000" stroke-opacity="1" stroke-width="1" stroke-linecap="butt" stroke-linejoin="round" fill="none" transform="matrix(1,0,0,1,0,0)" />
       <text x="197.625" y="74.4375" font-family="Arial" font-size="9.14999962" fill="#000000" transform="matrix(1,0,0,1,0,0)">Series2</text>
      </g>
     </g>
     <path d="M0,0 L239.875,0 L239.875,127.375 L0,127.375 Z " stroke="#000000" stroke-opacity="1" stroke-width="0.25" stroke-linecap="butt" stroke-linejoin="round" fill="none" transform="matrix(1,0,0,1,0,0)" />
     <text x="44.04207611" y="64.64231873" font-family="Microsoft Sans Serif" font-size="4" fill="#7878BF" transform="matrix(1,0,0,1,0,0)">Evaluation Only. Created with Aspose.Cells for Java.Copyright 2003 - 2016 Aspose Pty Ltd.</text>
    </g>
   </g>
  </g>
 </g>
 <defs />
</svg>
