<?xml version="1.0" encoding="UTF-8" standalone="yes"?>
<svg xmlns="http://www.w3.org/2000/svg" xmlns:xlink="http://www.w3.org/1999/xlink" width="259.5157pt" height="193.52542pt">
 <g id="SFixTitle" />
 <g id="SContent">
  <g transform="scale(1.33333)">
   <g>
    <g />
    <g />
    <g />
   </g>
   <defs>
    <clipPath id="CLIP0">
     <path d="M-0.5,-0.5 L0.5,-0.5 L0.5,0.5 L-0.5,0.5 Z " />
    </clipPath>
   </defs>
   <g clip-path="url(#CLIP0)" />
   <defs>
    <clipPath id="CLIP1">
     <path d="M-0.5,-0.5 L0.5,-0.5 L0.5,1.5 L-0.5,1.5 Z " />
    </clipPath>
   </defs>
   <g clip-path="url(#CLIP1)" />
   <defs>
    <clipPath id="CLIP2">
     <path d="M-0.5,-0.728315055 L152.5,-0.728315055 L152.5,50.271686554 L-0.5,50.271686554 Z " />
    </clipPath>
   </defs>
   <g transform="matrix(1,0,0,1,54.00000381,72)" clip-path="url(#CLIP2)">
    <g />
    <g>
     <g />
    </g>
    <g>
     <defs>
      <clipPath id="CLIP3">
       <path d="M0.25,37.394069672 L151.265655518,37.394069672 L151.265655518,49.275424957 L0.25,49.275424957 Z " />
      </clipPath>
     </defs>
     <g clip-path="url(#CLIP3)">
      <g>
       <g transform="matrix(1,0,0,1,1.05219209,48.55433655)">
        <text x="1" y="-2.11066413" font-family="Arial" font-size="9.96000004" fill="#000000">Sheet</text>
        <text x="27.02828217" y="-2.11066413" font-family="Arial" font-size="9.96000004" fill="#000000"> </text>
        <text x="29.79549026" y="-2.11066413" font-family="Arial" font-size="9.96000004" fill="#000000">3</text>
        <text x="35.33476639" y="-2.11066413" font-family="Arial" font-size="9.96000004" fill="#000000"> </text>
        <text x="38.10197449" y="-2.11066413" font-family="Arial" font-size="9.96000004" fill="#000000">Contents</text>
        <text x="77.96629333" y="-2.11066413" font-family="Arial" font-size="9.96000004" fill="#000000"> </text>
        <text x="80.73349762" y="-2.11066413" font-family="Arial" font-size="9.96000004" fill="#000000">go</text>
        <text x="91.81204987" y="-2.11066413" font-family="Arial" font-size="9.96000004" fill="#000000"> </text>
        <text x="94.57925415" y="-2.11066413" font-family="Arial" font-size="9.96000004" fill="#000000">here</text>
        <text x="114.51384735" y="-2.11066413" font-family="Arial" font-size="9.96000004" fill="#000000"> </text>
        <text x="117.28105164" y="-2.11066413" font-family="Arial" font-size="9.96000004" fill="#000000">…</text>
       </g>
      </g>
     </g>
    </g>
    <g />
   </g>
   <text x="10" y="10" font-family="Arial" font-size="10" fill="#FF0000">Evaluation Only. Created with Aspose.Cells for Java. Copyright 2003 - 2016 Aspose Pty Ltd.</text>
  </g>
 </g>
 <defs />
</svg>
